<svg width="120" height="44" viewBox="0 0 120 44" fill="none" xmlns="http://www.w3.org/2000/svg">
<path d="M41.596 17.2H42.632V26.104H48.12V27H41.596V17.2ZM52.5308 27.07C51.8214 27.07 51.1821 26.9113 50.6128 26.594C50.0434 26.2673 49.5954 25.8193 49.2688 25.25C48.9421 24.6807 48.7788 24.0367 48.7788 23.318C48.7788 22.5993 48.9421 21.9553 49.2688 21.386C49.5954 20.8167 50.0434 20.3733 50.6128 20.056C51.1821 19.7387 51.8214 19.58 52.5308 19.58C53.2401 19.58 53.8794 19.7387 54.4488 20.056C55.0181 20.3733 55.4614 20.8167 55.7788 21.386C56.1054 21.9553 56.2688 22.5993 56.2688 23.318C56.2688 24.0367 56.1054 24.6807 55.7788 25.25C55.4614 25.8193 55.0181 26.2673 54.4488 26.594C53.8794 26.9113 53.2401 27.07 52.5308 27.07ZM52.5308 26.188C53.0534 26.188 53.5201 26.0713 53.9308 25.838C54.3508 25.5953 54.6774 25.2547 54.9108 24.816C55.1441 24.3773 55.2608 23.878 55.2608 23.318C55.2608 22.758 55.1441 22.2587 54.9108 21.82C54.6774 21.3813 54.3508 21.0453 53.9308 20.812C53.5201 20.5693 53.0534 20.448 52.5308 20.448C52.0081 20.448 51.5368 20.5693 51.1168 20.812C50.7061 21.0453 50.3794 21.3813 50.1368 21.82C49.9034 22.2587 49.7868 22.758 49.7868 23.318C49.7868 23.878 49.9034 24.3773 50.1368 24.816C50.3794 25.2547 50.7061 25.5953 51.1168 25.838C51.5368 26.0713 52.0081 26.188 52.5308 26.188ZM65.1161 19.636V26.104C65.1161 27.3547 64.8081 28.2787 64.1921 28.876C63.5854 29.4827 62.6661 29.786 61.4341 29.786C60.7528 29.786 60.1041 29.6833 59.4881 29.478C58.8814 29.282 58.3868 29.0067 58.0041 28.652L58.5081 27.896C58.8628 28.2133 59.2921 28.4607 59.7961 28.638C60.3094 28.8153 60.8461 28.904 61.4061 28.904C62.3394 28.904 63.0254 28.6847 63.4641 28.246C63.9028 27.8167 64.1221 27.1447 64.1221 26.23V25.292C63.8141 25.7587 63.4081 26.1133 62.9041 26.356C62.4094 26.5987 61.8588 26.72 61.2521 26.72C60.5614 26.72 59.9314 26.5707 59.3621 26.272C58.8021 25.964 58.3588 25.5393 58.0321 24.998C57.7148 24.4473 57.5561 23.8267 57.5561 23.136C57.5561 22.4453 57.7148 21.8293 58.0321 21.288C58.3588 20.7467 58.8021 20.3267 59.3621 20.028C59.9221 19.7293 60.5521 19.58 61.2521 19.58C61.8774 19.58 62.4421 19.706 62.9461 19.958C63.4501 20.21 63.8561 20.574 64.1641 21.05V19.636H65.1161ZM61.3501 25.838C61.8821 25.838 62.3628 25.726 62.7921 25.502C63.2214 25.2687 63.5528 24.9467 63.7861 24.536C64.0288 24.1253 64.1501 23.6587 64.1501 23.136C64.1501 22.6133 64.0288 22.1513 63.7861 21.75C63.5528 21.3393 63.2214 21.022 62.7921 20.798C62.3721 20.5647 61.8914 20.448 61.3501 20.448C60.8181 20.448 60.3374 20.56 59.9081 20.784C59.4881 21.008 59.1568 21.3253 58.9141 21.736C58.6808 22.1467 58.5641 22.6133 58.5641 23.136C58.5641 23.6587 58.6808 24.1253 58.9141 24.536C59.1568 24.9467 59.4881 25.2687 59.9081 25.502C60.3374 25.726 60.8181 25.838 61.3501 25.838ZM67.8958 19.636H68.8898V27H67.8958V19.636ZM68.3998 18.026C68.1944 18.026 68.0218 17.956 67.8818 17.816C67.7418 17.676 67.6718 17.508 67.6718 17.312C67.6718 17.1253 67.7418 16.962 67.8818 16.822C68.0218 16.682 68.1944 16.612 68.3998 16.612C68.6051 16.612 68.7778 16.682 68.9178 16.822C69.0578 16.9527 69.1278 17.1113 69.1278 17.298C69.1278 17.5033 69.0578 17.676 68.9178 17.816C68.7778 17.956 68.6051 18.026 68.3998 18.026ZM75.4075 19.58C76.3315 19.58 77.0642 19.8507 77.6055 20.392C78.1562 20.924 78.4315 21.7033 78.4315 22.73V27H77.4375V22.828C77.4375 22.0627 77.2462 21.4793 76.8635 21.078C76.4809 20.6767 75.9349 20.476 75.2255 20.476C74.4322 20.476 73.8022 20.714 73.3355 21.19C72.8782 21.6567 72.6495 22.3053 72.6495 23.136V27H71.6555V19.636H72.6075V20.994C72.8782 20.546 73.2515 20.2007 73.7275 19.958C74.2129 19.706 74.7729 19.58 75.4075 19.58Z" fill="white"/>
<rect x="0.5" y="0.5" width="119" height="43" rx="1.5" stroke="white"/>
</svg>
